<svg width="30" height="30" viewBox="0 0 30 30" fill="none" xmlns="http://www.w3.org/2000/svg">
<circle cx="15" cy="15" r="14.5" stroke="white"/>
<g clip-path="url(#clip0_0_1)">
<path d="M15.1244 15.2172L13.7641 11.6808C13.7437 11.6277 13.7077 11.5821 13.6608 11.5499C13.6139 11.5177 13.5584 11.5005 13.5015 11.5005C13.4447 11.5005 13.3891 11.5177 13.3423 11.5499C13.2954 11.5821 13.2594 11.6277 13.239 11.6808L11.8787 15.2172C11.8645 15.2539 11.8429 15.2873 11.815 15.3151C11.7872 15.343 11.7538 15.3647 11.7171 15.3788L8.18068 16.7391C8.12761 16.7595 8.08198 16.7955 8.04979 16.8424C8.0176 16.8893 8.00037 16.9448 8.00037 17.0017C8.00037 17.0585 8.0176 17.114 8.04979 17.1609C8.08198 17.2078 8.12761 17.2438 8.18068 17.2642L11.7171 18.6245C11.7538 18.6386 11.7872 18.6603 11.815 18.6882C11.8429 18.716 11.8645 18.7494 11.8787 18.7861L13.239 22.3225C13.2594 22.3756 13.2954 22.4212 13.3423 22.4534C13.3891 22.4856 13.4447 22.5028 13.5015 22.5028C13.5584 22.5028 13.6139 22.4856 13.6608 22.4534C13.7077 22.4212 13.7437 22.3756 13.7641 22.3225L15.1244 18.7861C15.1385 18.7494 15.1602 18.716 15.188 18.6882C15.2159 18.6603 15.2492 18.6386 15.286 18.6245L18.8224 17.2642C18.8754 17.2438 18.9211 17.2078 18.9533 17.1609C18.9855 17.114 19.0027 17.0585 19.0027 17.0017C19.0027 16.9448 18.9855 16.8893 18.9533 16.8424C18.9211 16.7955 18.8754 16.7595 18.8224 16.7391L15.286 15.3788C15.2492 15.3647 15.2159 15.343 15.188 15.3151C15.1602 15.2873 15.1385 15.2539 15.1244 15.2172Z" stroke="white" stroke-width="1.00189" stroke-linecap="round" stroke-linejoin="round"/>
<path d="M10.3763 9.12559L9.75105 7.5L9.12583 9.12559L7.50024 9.75081L9.12583 10.376L9.75105 12.0016L10.3763 10.376L12.0019 9.75081L10.3763 9.12559Z" stroke="white" stroke-width="1.00189" stroke-linecap="round" stroke-linejoin="round"/>
<path d="M20.3364 10.6676L19.5027 8.50024L18.6689 10.6676L16.5016 11.5013L18.6689 12.3351L19.5027 14.5024L20.3364 12.3351L22.5037 11.5013L20.3364 10.6676Z" stroke="white" stroke-width="1.00189" stroke-linecap="round" stroke-linejoin="round"/>
</g>
<defs>
<clipPath id="clip0_0_1">
<rect width="16.0035" height="16.0035" fill="white" transform="translate(7 7)"/>
</clipPath>
</defs>
</svg>