<svg width="24" height="24" viewBox="0 0 25 24" fill="none" xmlns="http://www.w3.org/2000/svg">
<path d="M8.94626 16H19.7153C19.8686 16 20.0096 15.936 20.1383 15.808C20.2669 15.68 20.3309 15.539 20.3303 15.385V4.615C20.3303 4.46167 20.2663 4.32067 20.1383 4.192C20.0103 4.06334 19.8689 3.99934 19.7143 4H18.3303V9.414C18.3303 9.57534 18.2629 9.69634 18.1283 9.777C17.9936 9.85767 17.8559 9.85267 17.7153 9.762L16.7393 9.19C16.5986 9.10334 16.4579 9.06 16.3173 9.06C16.1766 9.06 16.0443 9.10334 15.9203 9.19L14.9453 9.762C14.8006 9.85267 14.6619 9.85767 14.5293 9.777C14.3966 9.69634 14.3303 9.57534 14.3303 9.414V4H8.94626C8.79226 4 8.65093 4.064 8.52226 4.192C8.3936 4.32 8.3296 4.461 8.33026 4.615V15.385C8.33026 15.5383 8.39426 15.6793 8.52226 15.808C8.65026 15.9367 8.79126 16.0007 8.94526 16M8.94526 17C8.48526 17 8.10093 16.846 7.79226 16.538C7.4836 16.23 7.3296 15.8457 7.33026 15.385V4.615C7.33026 4.155 7.4846 3.77067 7.79326 3.462C8.10193 3.15334 8.48626 2.99934 8.94626 3H19.7153C20.1753 3 20.5596 3.154 20.8683 3.462C21.1769 3.77 21.3309 4.15434 21.3303 4.615V15.385C21.3303 15.845 21.1763 16.229 20.8683 16.537C20.5603 16.845 20.1756 16.9993 19.7143 17H8.94526ZM5.94526 20C5.48526 20 5.10093 19.846 4.79226 19.538C4.4836 19.23 4.3296 18.8457 4.33026 18.385V7.115C4.33026 6.973 4.37793 6.85434 4.47326 6.759C4.5686 6.66367 4.6876 6.616 4.83026 6.616C4.97293 6.616 5.09193 6.66367 5.18726 6.759C5.2826 6.85434 5.33026 6.97334 5.33026 7.116V18.385C5.33026 18.5383 5.39426 18.6793 5.52226 18.808C5.65026 18.9367 5.79126 19.0007 5.94526 19H17.2153C17.3573 19 17.4759 19.0477 17.5713 19.143C17.6666 19.2383 17.7146 19.3573 17.7153 19.5C17.7159 19.6427 17.6679 19.7617 17.5713 19.857C17.4746 19.9523 17.3559 20 17.2153 20H5.94526ZM14.5293 9.777C14.6619 9.85767 14.8009 9.85267 14.9463 9.762L15.9203 9.19L14.9453 9.762C14.8006 9.85267 14.6619 9.85767 14.5293 9.777Z" fill="black"/>
</svg>
