<svg width="24" height="24" viewBox="0 0 25 24" fill="none" xmlns="http://www.w3.org/2000/svg">
<path d="M3.82596 20.192C3.36529 20.192 2.98096 20.038 2.67296 19.73C2.36496 19.422 2.21063 19.0377 2.20996 18.577V9.923C2.20996 9.781 2.25763 9.662 2.35296 9.566C2.44829 9.47 2.56729 9.42234 2.70996 9.423C2.85263 9.42367 2.97163 9.47134 3.06696 9.566C3.16229 9.66067 3.20996 9.77967 3.20996 9.923V18.577C3.20996 18.7303 3.27396 18.8713 3.40196 19C3.52996 19.1287 3.67096 19.1927 3.82496 19.192H18.21C18.3526 19.192 18.4716 19.24 18.567 19.336C18.6623 19.432 18.71 19.5507 18.71 19.692C18.71 19.8333 18.6623 19.9523 18.567 20.049C18.4716 20.1457 18.3526 20.1933 18.21 20.192H3.82596ZM6.82596 17.192C6.36529 17.192 5.98096 17.038 5.67296 16.73C5.36496 16.422 5.21063 16.0377 5.20996 15.577V7C5.20996 6.768 5.28663 6.57534 5.43996 6.422C5.59329 6.26867 5.78596 6.192 6.01796 6.192H10.518V4.615C10.518 4.155 10.672 3.77067 10.98 3.462C11.288 3.15334 11.6723 2.99934 12.133 3H15.287C15.747 3 16.1313 3.154 16.44 3.462C16.7486 3.77 16.9026 4.15434 16.902 4.615V6.192H21.402C21.634 6.192 21.8266 6.26867 21.98 6.422C22.1333 6.57534 22.21 6.768 22.21 7V15.577C22.21 16.037 22.056 16.4213 21.748 16.73C21.44 17.0387 21.0556 17.1927 20.595 17.192H6.82596ZM11.518 6.192H15.902V4.615C15.902 4.46167 15.838 4.32067 15.71 4.192C15.582 4.06334 15.441 3.99934 15.287 4H12.133C11.9796 4 11.8386 4.064 11.71 4.192C11.5813 4.32 11.5173 4.461 11.518 4.615V6.192Z" fill="black"/>
</svg>
