<svg width="30" height="30" viewBox="0 0 30 30" fill="none" xmlns="http://www.w3.org/2000/svg">
<circle cx="15" cy="15" r="14.5" stroke="white"/>
<path d="M9.73509 18.877C9.77229 18.7401 9.69008 18.5498 9.61163 18.4125C9.5872 18.3716 9.5607 18.332 9.53224 18.2938C8.85936 17.2733 8.50072 16.0778 8.50076 14.8555C8.48982 11.3469 11.3992 8.49976 14.9969 8.49976C18.1344 8.49976 20.7534 10.6734 21.3654 13.5587C21.4571 13.9864 21.5034 14.4227 21.5036 14.8602C21.5036 18.3738 18.7064 21.2657 15.1088 21.2657C14.5368 21.2657 13.7647 21.1219 13.3437 21.004C12.9227 20.8862 12.5023 20.7299 12.3938 20.688C12.2829 20.6454 12.1651 20.6235 12.0462 20.6233C11.9164 20.6228 11.7879 20.6487 11.6683 20.6993L9.54818 21.4645C9.50173 21.4845 9.45251 21.4973 9.40221 21.5026C9.36251 21.5025 9.32323 21.4945 9.28665 21.4791C9.25006 21.4637 9.2169 21.4411 9.18908 21.4128C9.16126 21.3845 9.13933 21.351 9.12457 21.3141C9.10981 21.2773 9.1025 21.2378 9.10308 21.1981C9.10569 21.1633 9.11198 21.1288 9.12184 21.0953L9.73509 18.877Z" stroke="white" stroke-width="1.00189" stroke-miterlimit="10" stroke-linecap="round"/>
</svg>