<svg width="24" height="24" viewBox="0 0 24 24" fill="none" xmlns="http://www.w3.org/2000/svg">
<path d="M5.57137 19.462C5.34737 19.462 5.1567 19.3833 4.99937 19.226C4.84203 19.0686 4.76337 18.878 4.76337 18.654C4.76337 18.43 4.84203 18.2393 4.99937 18.082C5.1567 17.9246 5.34737 17.846 5.57137 17.846H7.78737L5.19837 9.38095C4.76103 9.16962 4.4127 8.86695 4.15337 8.47295C3.89337 8.07962 3.76337 7.62729 3.76337 7.11595C3.76337 6.42329 4.00703 5.83329 4.49437 5.34595C4.9817 4.85862 5.5717 4.61529 6.26437 4.61595C6.8757 4.61595 7.40037 4.80329 7.83837 5.17795C8.27637 5.55262 8.5697 6.03195 8.71837 6.61595H12.3784V5.11595C12.3784 4.97329 12.4264 4.85429 12.5224 4.75895C12.6184 4.66362 12.7374 4.61595 12.8794 4.61595C12.9907 4.61595 13.0884 4.64929 13.1724 4.71595C13.2564 4.78262 13.3097 4.86962 13.3324 4.97695V5.24695L15.1484 3.56895C15.2857 3.43162 15.439 3.34862 15.6084 3.31995C15.779 3.29129 15.945 3.32062 16.1064 3.40795L19.8904 5.16895C20.0137 5.23095 20.1064 5.31929 20.1684 5.43395C20.2304 5.54862 20.2327 5.66529 20.1754 5.78395C20.114 5.90729 20.026 5.98529 19.9114 6.01795C19.7967 6.05062 19.6794 6.03829 19.5594 5.98095L15.7674 4.21495L13.3794 6.41495V7.81495L15.7674 9.96495L19.5604 8.19995C19.6797 8.14262 19.7977 8.13129 19.9144 8.16595C20.0304 8.19995 20.1174 8.27662 20.1754 8.39595C20.2367 8.51929 20.2354 8.63729 20.1714 8.74995C20.1074 8.86329 20.014 8.95062 19.8914 9.01195L16.1064 10.785C15.9444 10.8716 15.7787 10.9006 15.6094 10.872C15.4394 10.8433 15.2857 10.7603 15.1484 10.623L13.3334 8.98495V9.25395C13.31 9.35395 13.2564 9.43929 13.1724 9.50995C13.0884 9.58062 12.9907 9.61595 12.8794 9.61595C12.7367 9.61595 12.6177 9.56795 12.5224 9.47195C12.427 9.37662 12.3794 9.25795 12.3794 9.11595V7.61595H8.71737C8.66737 7.83862 8.58437 8.05962 8.46837 8.27895C8.35237 8.49829 8.22503 8.68095 8.08637 8.82695L12.9334 17.847H15.9564C16.1804 17.847 16.371 17.9253 16.5284 18.082C16.6857 18.2386 16.7644 18.4293 16.7644 18.654C16.7644 18.8786 16.6857 19.0693 16.5284 19.226C16.371 19.3826 16.1804 19.461 15.9564 19.461L5.57137 19.462ZM6.26437 8.61595C6.6757 8.61595 7.02837 8.46862 7.32237 8.17395C7.61703 7.87995 7.76437 7.52729 7.76437 7.11595C7.76437 6.70395 7.61703 6.35062 7.32237 6.05595C7.02837 5.76262 6.6757 5.61595 6.26437 5.61595C5.85303 5.61595 5.4997 5.76262 5.20437 6.05595C4.91103 6.35062 4.76437 6.70395 4.76437 7.11595C4.76437 7.52729 4.91103 7.87995 5.20437 8.17395C5.49903 8.46862 5.85237 8.61595 6.26437 8.61595Z" fill="black"/>
</svg>
