<svg width="120" height="120" viewBox="0 0 120 120" fill="none" xmlns="http://www.w3.org/2000/svg">
<path d="M30 105C27.18 105 24.8083 104.038 22.885 102.115C20.9617 100.192 20 97.82 20 95V85.195C20 84.0483 20.3867 83.0883 21.16 82.315C21.9333 81.5417 22.8933 81.155 24.04 81.155H35V23.08C35 20.8567 35.7917 18.955 37.375 17.375C38.9583 15.795 40.8583 15.0033 43.075 15H91.925C94.145 15 96.045 15.7917 97.625 17.375C99.205 18.9583 99.9967 20.8583 100 23.075V52.115C100 52.825 99.76 53.4183 99.28 53.895C98.8 54.3717 98.205 54.6117 97.495 54.615C96.785 54.6183 96.1917 54.3783 95.715 53.895C95.2383 53.4117 95 52.8183 95 52.115V23.08C95 22.18 94.7117 21.4417 94.135 20.865C93.5583 20.2883 92.8217 20 91.925 20H43.075C42.1783 20 41.4417 20.2883 40.865 20.865C40.2883 21.4417 40 22.18 40 23.08V81.15H59.49C60.8567 81.15 61.79 81.7633 62.29 82.99C62.79 84.2167 62.5683 85.305 61.625 86.255C60.9017 86.9783 60.3217 87.8417 59.885 88.845C59.4483 89.8483 59.2317 90.9017 59.235 92.005V100.95C59.235 102.117 58.8467 103.083 58.07 103.85C57.2933 104.617 56.335 104.998 55.195 104.995L30 105ZM71.15 100.96V95.6C71.15 95.0633 71.245 94.5583 71.435 94.085C71.6183 93.6083 71.9283 93.1617 72.365 92.745L97.815 67.42C98.3117 66.9867 98.8217 66.67 99.345 66.47C99.8683 66.27 100.393 66.1667 100.92 66.16C101.493 66.16 102.057 66.2667 102.61 66.48C103.163 66.6967 103.665 67.02 104.115 67.45L108.74 72.17C109.15 72.6633 109.463 73.1767 109.68 73.71C109.893 74.24 110 74.7717 110 75.305C110 75.8383 109.913 76.375 109.74 76.915C109.567 77.455 109.233 77.9717 108.74 78.465L83.4 103.81C82.9933 104.217 82.5533 104.517 82.08 104.71C81.6033 104.907 81.0967 105.005 80.56 105.005H75.195C74.0483 105.005 73.0883 104.618 72.315 103.845C71.5417 103.072 71.155 102.112 71.155 100.965M100.955 80.08L105.58 75.3L100.955 70.58L96.205 75.33L100.955 80.08ZM49.425 50.77H85.575C86.285 50.77 86.88 51.01 87.36 51.49C87.84 51.97 88.0783 52.565 88.075 53.275C88.0717 53.985 87.8333 54.5783 87.36 55.055C86.8867 55.5317 86.2917 55.77 85.575 55.77H49.425C48.715 55.77 48.12 55.53 47.64 55.05C47.1633 54.57 46.925 53.975 46.925 53.265C46.925 52.555 47.1633 51.9617 47.64 51.485C48.1167 51.0083 48.7117 50.77 49.425 50.77ZM49.425 36.92H85.575C86.285 36.92 86.88 37.1617 87.36 37.645C87.84 38.1283 88.0783 38.7217 88.075 39.425C88.0717 40.1283 87.8333 40.7217 87.36 41.205C86.8867 41.6883 86.2917 41.9283 85.575 41.925H49.425C48.715 41.925 48.12 41.685 47.64 41.205C47.1633 40.725 46.925 40.13 46.925 39.42C46.925 38.71 47.1633 38.1167 47.64 37.64C48.1167 37.1633 48.7117 36.925 49.425 36.925" fill="white"/>
</svg>
