<svg width="24" height="24" viewBox="0 0 24 24" fill="none" xmlns="http://www.w3.org/2000/svg">
<path d="M3.7703 20.1541C3.4763 20.1541 3.22964 20.0541 3.0303 19.8541C2.83097 19.6541 2.73097 19.4081 2.7303 19.1161V4.19208C2.7303 3.89874 2.8303 3.65241 3.0303 3.45308C3.22964 3.25308 3.4763 3.15308 3.7703 3.15308H10.6923C10.9856 3.15308 11.2323 3.25308 11.4323 3.45308C11.6316 3.65241 11.7313 3.89908 11.7313 4.19308V7.15308H20.2313C20.5246 7.15308 20.7713 7.25308 20.9713 7.45308C21.17 7.65241 21.2693 7.89908 21.2693 8.19308V19.1161C21.2693 19.4094 21.1696 19.6557 20.9703 19.8551C20.771 20.0544 20.5243 20.1541 20.2303 20.1541H3.7703ZM3.7303 19.1541H10.7303V16.1541H3.7303V19.1541ZM3.7303 15.1541H10.7303V12.1541H3.7303V15.1541ZM3.7303 11.1541H10.7303V8.15408H3.7303V11.1541ZM3.7303 7.15408H10.7303V4.15408H3.7303V7.15408ZM11.7303 19.1541H20.2703V8.15408H11.7303V19.1541ZM14.6163 12.1541C14.4743 12.1541 14.3553 12.1061 14.2593 12.0101C14.164 11.9141 14.1163 11.7951 14.1163 11.6531C14.1163 11.5111 14.164 11.3924 14.2593 11.2971C14.3546 11.2017 14.4736 11.1541 14.6163 11.1541H17.0003C17.1423 11.1541 17.261 11.2021 17.3563 11.2981C17.4516 11.3941 17.4996 11.5131 17.5003 11.6551C17.501 11.7971 17.453 11.9157 17.3563 12.0111C17.2596 12.1064 17.141 12.1541 17.0003 12.1541H14.6163ZM14.6163 16.1541C14.4743 16.1541 14.3553 16.1061 14.2593 16.0101C14.164 15.9141 14.1163 15.7951 14.1163 15.6531C14.1163 15.5111 14.164 15.3924 14.2593 15.2971C14.3546 15.2017 14.4736 15.1541 14.6163 15.1541H17.0003C17.1423 15.1541 17.261 15.2021 17.3563 15.2981C17.4516 15.3941 17.4996 15.5131 17.5003 15.6551C17.501 15.7971 17.453 15.9157 17.3563 16.0111C17.2596 16.1064 17.141 16.1541 17.0003 16.1541H14.6163Z" fill="black"/>
</svg>
