<svg width="120" height="120" viewBox="0 0 120 120" fill="none" xmlns="http://www.w3.org/2000/svg">
<path d="M60 100C48.3133 100 38.725 98.5117 31.235 95.535C23.745 92.5583 20 88.725 20 84.035V35C20 30.8467 23.9 27.3083 31.7 24.385C39.5 21.4617 48.9333 20 60 20C71.0667 20 80.5 21.4617 88.3 24.385C96.1 27.3083 100 30.8467 100 35V84.04C100 88.7233 96.255 92.555 88.765 95.535C81.275 98.515 71.6867 100.003 60 100ZM60 44.45C67.16 44.45 74.3767 43.4517 81.65 41.455C88.93 39.4583 93.2833 37.2833 94.71 34.93C93.3433 32.45 89.06 30.175 81.86 28.105C74.66 26.035 67.3733 25 60 25C52.7367 25 45.46 25.9983 38.17 27.995C30.88 29.9917 26.5217 32.175 25.095 34.545C26.455 37.045 30.7483 39.3217 37.975 41.375C45.2017 43.4283 52.5433 44.45 60 44.45ZM60 69.615C63.4333 69.615 66.8083 69.4483 70.125 69.115C73.4417 68.7817 76.61 68.2867 79.63 67.63C82.65 66.9733 85.4583 66.155 88.055 65.175C90.6517 64.195 92.9667 63.0867 95 61.85V41.375C92.9633 42.6083 90.6467 43.715 88.05 44.695C85.46 45.675 82.6533 46.4917 79.63 47.145C76.6067 47.805 73.4383 48.3017 70.125 48.635C66.8117 48.9683 63.4367 49.135 60 49.135C56.4333 49.135 52.9683 48.9517 49.605 48.585C46.2417 48.2183 43.065 47.7083 40.075 47.055C37.085 46.4017 34.3133 45.5983 31.76 44.645C29.2067 43.6917 26.9533 42.6017 25 41.375V61.855C26.9567 63.0883 29.21 64.1783 31.76 65.125C34.31 66.0717 37.0817 66.875 40.075 67.535C43.0617 68.1917 46.2383 68.7033 49.605 69.07C52.9717 69.4367 56.4367 69.6183 60 69.615ZM60 95C64.2833 95 68.355 94.7567 72.215 94.27C76.075 93.7833 79.545 93.0933 82.625 92.2C85.705 91.3067 88.3217 90.2383 90.475 88.995C92.6283 87.7517 94.1367 86.41 95 84.97V66.855C92.9633 68.0883 90.6467 69.195 88.05 70.175C85.46 71.155 82.6533 71.9733 79.63 72.63C76.6067 73.2867 73.4383 73.7817 70.125 74.115C66.8117 74.4483 63.4367 74.615 60 74.615C56.4333 74.615 52.9683 74.4317 49.605 74.065C46.2417 73.6983 43.065 73.1883 40.075 72.535C37.085 71.8817 34.3133 71.0783 31.76 70.125C29.2067 69.1783 26.9533 68.0883 25 66.855V85C25.8667 86.5067 27.3717 87.86 29.515 89.06C31.6583 90.26 34.2683 91.305 37.345 92.195C40.4217 93.085 43.8967 93.7767 47.77 94.27C51.6433 94.7633 55.72 95.0067 60 95Z" fill="white"/>
</svg>
