<svg width="16" height="16" viewBox="0 0 16 16" fill="none" xmlns="http://www.w3.org/2000/svg">
<path d="M10.5014 8.25572V13.6278C10.5014 14.3874 9.90592 15.0031 9.15888 15.0031H3.34355C2.59495 15.0031 1.99951 14.3874 1.99951 13.6278V5.37603C2.00164 5.01194 2.14723 4.66336 2.40468 4.4059C2.66214 4.14845 3.01072 4.00287 3.37481 4.00073H6.3167C6.41853 4.00089 6.51931 4.02131 6.61317 4.0608C6.70703 4.1003 6.79208 4.15808 6.86338 4.23078L10.2751 7.70029C10.4202 7.84872 10.5015 8.04811 10.5014 8.25572V8.25572Z" stroke="white" stroke-width="1.00189" stroke-linejoin="round"/>
<path d="M6.25098 4.00073V7.37695C6.25374 7.60824 6.34684 7.82928 6.5104 7.99284C6.67396 8.1564 6.895 8.24951 7.12629 8.25227H10.5025" stroke="white" stroke-width="1.00189" stroke-linecap="round" stroke-linejoin="round"/>
<path d="M5.5011 4.00065V2.3753C5.50323 2.01121 5.64881 1.66263 5.90627 1.40517C6.16373 1.14771 6.5123 1.00213 6.8764 1H9.81454C9.91693 1.00014 10.0183 1.02054 10.1127 1.06003C10.2072 1.09951 10.2929 1.15729 10.365 1.23005L13.7767 4.69956C13.9217 4.8464 14.003 5.04452 14.003 5.25093V10.6271C14.003 11.3866 13.4075 12.0024 12.6605 12.0024H10.7522" stroke="white" stroke-width="1.00189" stroke-linejoin="round"/>
<path d="M9.75134 1.00024V4.37646C9.7541 4.60775 9.84721 4.82879 10.0108 4.99235C10.1743 5.15591 10.3954 5.24902 10.6267 5.25178H14.0029" stroke="white" stroke-width="1.00189" stroke-linecap="round" stroke-linejoin="round"/>
</svg>