<svg width="16" height="16" viewBox="0 0 16 16" fill="none" xmlns="http://www.w3.org/2000/svg">
<path d="M13.0029 6.91549V13.0028C13.0029 13.4007 12.8448 13.7823 12.5635 14.0636C12.2821 14.345 11.9005 14.5031 11.5026 14.5031H4.50106C4.10315 14.5031 3.72153 14.345 3.44017 14.0636C3.1588 13.7823 3.00073 13.4007 3.00073 13.0028V3.00057C3.00073 2.60266 3.1588 2.22105 3.44017 1.93968C3.72153 1.65831 4.10315 1.50024 4.50106 1.50024H7.58767C7.85285 1.50028 8.10716 1.60563 8.2947 1.79312L12.71 6.20846C12.8975 6.39599 13.0029 6.6503 13.0029 6.91549Z" stroke="white" stroke-width="1.00189" stroke-linejoin="round"/>
<path d="M8.00183 1.75024V5.5016C8.00183 5.76691 8.10723 6.02136 8.29483 6.20896C8.48243 6.39656 8.73688 6.50196 9.00219 6.50196H12.7535" stroke="white" stroke-width="1.00189" stroke-linecap="round" stroke-linejoin="round"/>
</svg>