<svg width="36" height="36" viewBox="0 0 36 36" fill="none" xmlns="http://www.w3.org/2000/svg">
<path d="M8.3565 29.193C8.0205 29.193 7.7345 29.075 7.4985 28.839C7.2625 28.603 7.1445 28.317 7.1445 27.981C7.1445 27.645 7.2625 27.359 7.4985 27.123C7.7345 26.887 8.0205 26.769 8.3565 26.769H11.6805L7.797 14.0715C7.141 13.7545 6.6185 13.3005 6.2295 12.7096C5.8395 12.1196 5.6445 11.4411 5.6445 10.6741C5.6445 9.63505 6.01 8.75005 6.741 8.01905C7.472 7.28805 8.357 6.92305 9.396 6.92405C10.313 6.92405 11.1 7.20505 11.757 7.76705C12.414 8.32905 12.854 9.04805 13.077 9.92405H18.567V7.67405C18.567 7.46005 18.639 7.28155 18.783 7.13855C18.927 6.99555 19.1055 6.92405 19.3185 6.92405C19.4855 6.92405 19.632 6.97405 19.758 7.07405C19.884 7.17405 19.964 7.30455 19.998 7.46555V7.87055L22.722 5.35355C22.928 5.14755 23.158 5.02305 23.412 4.98005C23.668 4.93705 23.917 4.98105 24.159 5.11205L29.835 7.75355C30.02 7.84655 30.159 7.97905 30.252 8.15105C30.345 8.32305 30.3485 8.49805 30.2625 8.67605C30.1705 8.86105 30.0385 8.97805 29.8665 9.02705C29.6945 9.07605 29.5185 9.05755 29.3385 8.97155L23.6505 6.32255L20.0685 9.62255V11.7226L23.6505 14.9476L29.34 12.3001C29.519 12.2141 29.696 12.1971 29.871 12.2491C30.045 12.3001 30.1755 12.4151 30.2625 12.5941C30.3545 12.7791 30.3525 12.9561 30.2565 13.1251C30.1605 13.2951 30.0205 13.4261 29.8365 13.5181L24.159 16.1776C23.916 16.3076 23.6675 16.351 23.4135 16.308C23.1585 16.265 22.928 16.1406 22.722 15.9346L19.9995 13.4776V13.8811C19.9645 14.0311 19.884 14.1591 19.758 14.2651C19.632 14.3711 19.4855 14.4241 19.3185 14.4241C19.1045 14.4241 18.926 14.3521 18.783 14.2081C18.64 14.0651 18.5685 13.8871 18.5685 13.6741V11.4241H13.0755C13.0005 11.7581 12.876 12.0896 12.702 12.4186C12.528 12.7476 12.337 13.0216 12.129 13.2406L19.3995 26.7705H23.934C24.27 26.7705 24.556 26.888 24.792 27.123C25.028 27.358 25.146 27.644 25.146 27.981C25.146 28.318 25.028 28.604 24.792 28.839C24.556 29.074 24.27 29.1915 23.934 29.1915L8.3565 29.193ZM9.396 12.9241C10.013 12.9241 10.542 12.7031 10.983 12.2611C11.425 11.8201 11.646 11.2911 11.646 10.6741C11.646 10.0561 11.425 9.52605 10.983 9.08405C10.542 8.64405 10.013 8.42405 9.396 8.42405C8.779 8.42405 8.249 8.64405 7.806 9.08405C7.366 9.52605 7.146 10.0561 7.146 10.6741C7.146 11.2911 7.366 11.8201 7.806 12.2611C8.248 12.7031 8.778 12.9241 9.396 12.9241Z" fill="#462078"/>
</svg>
