<svg width="36" height="36" viewBox="0 0 36 36" fill="none" xmlns="http://www.w3.org/2000/svg">
<path d="M12.174 24H28.3275C28.5575 24 28.769 23.904 28.962 23.712C29.155 23.52 29.251 23.3085 29.25 23.0775V6.9225C29.25 6.6925 29.154 6.481 28.962 6.288C28.77 6.095 28.558 5.999 28.326 6H26.25V14.121C26.25 14.363 26.149 14.5445 25.947 14.6655C25.745 14.7865 25.5385 14.779 25.3275 14.643L23.8635 13.785C23.6525 13.655 23.4415 13.59 23.2305 13.59C23.0195 13.59 22.821 13.655 22.635 13.785L21.1725 14.643C20.9555 14.779 20.7475 14.7865 20.5485 14.6655C20.3495 14.5445 20.25 14.363 20.25 14.121V6H12.174C11.943 6 11.731 6.096 11.538 6.288C11.345 6.48 11.249 6.6915 11.25 6.9225V23.0775C11.25 23.3075 11.346 23.519 11.538 23.712C11.73 23.905 11.9415 24.001 12.1725 24M12.1725 25.5C11.4825 25.5 10.906 25.269 10.443 24.807C9.98 24.345 9.749 23.7685 9.75 23.0775V6.9225C9.75 6.2325 9.9815 5.656 10.4445 5.193C10.9075 4.73 11.484 4.499 12.174 4.5H28.3275C29.0175 4.5 29.594 4.731 30.057 5.193C30.52 5.655 30.751 6.2315 30.75 6.9225V23.0775C30.75 23.7675 30.519 24.3435 30.057 24.8055C29.595 25.2675 29.018 25.499 28.326 25.5H12.1725ZM7.6725 30C6.9825 30 6.406 29.769 5.943 29.307C5.48 28.845 5.249 28.2685 5.25 27.5775V10.6725C5.25 10.4595 5.3215 10.2815 5.4645 10.1385C5.6075 9.9955 5.786 9.924 6 9.924C6.214 9.924 6.3925 9.9955 6.5355 10.1385C6.6785 10.2815 6.75 10.46 6.75 10.674V27.5775C6.75 27.8075 6.846 28.019 7.038 28.212C7.23 28.405 7.4415 28.501 7.6725 28.5H24.5775C24.7905 28.5 24.9685 28.5715 25.1115 28.7145C25.2545 28.8575 25.3265 29.036 25.3275 29.25C25.3285 29.464 25.2565 29.6425 25.1115 29.7855C24.9665 29.9285 24.7885 30 24.5775 30H7.6725ZM20.5485 14.6655C20.7475 14.7865 20.956 14.779 21.174 14.643L22.635 13.785L21.1725 14.643C20.9555 14.779 20.7475 14.7865 20.5485 14.6655Z" fill="#462078"/>
</svg>
