<svg width="36" height="36" viewBox="0 0 36 36" fill="none" xmlns="http://www.w3.org/2000/svg">
<path d="M6.53829 31.4608C5.84729 31.4608 5.27079 31.2298 4.80879 30.7678C4.34679 30.3058 4.11529 29.7293 4.11429 29.0383V9.88326C4.11429 9.19326 4.34579 8.61726 4.80879 8.15526C5.27179 7.69326 5.84779 7.46176 6.53679 7.46076H13.5643C13.7783 7.46076 13.9568 7.53226 14.0998 7.67526C14.2428 7.81826 14.3143 7.99676 14.3143 8.21076C14.3143 8.42476 14.2428 8.60326 14.0998 8.74626C13.9568 8.88926 13.7783 8.96076 13.5643 8.96076H6.53679C6.30679 8.96076 6.09529 9.05676 5.90229 9.24876C5.70929 9.44076 5.61329 9.65276 5.61429 9.88476V29.0383C5.61429 29.2683 5.71029 29.4798 5.90229 29.6728C6.09429 29.8658 6.30579 29.9618 6.53679 29.9608H25.6918C25.9218 29.9608 26.1333 29.8648 26.3263 29.6728C26.5193 29.4808 26.6153 29.2693 26.6143 29.0383V20.1508C26.6143 19.9378 26.6858 19.7598 26.8288 19.6168C26.9718 19.4738 27.1503 19.4023 27.3643 19.4023C27.5783 19.4023 27.7568 19.4738 27.8998 19.6168C28.0428 19.7598 28.1143 19.9383 28.1143 20.1523V29.0368C28.1143 29.7268 27.8833 30.3033 27.4213 30.7663C26.9593 31.2293 26.3823 31.4608 25.6903 31.4608H6.53829ZM27.2953 13.0798L31.7368 17.5228C31.8768 17.6628 31.9518 17.8348 31.9618 18.0388C31.9718 18.2428 31.8968 18.4248 31.7368 18.5848C31.5768 18.7448 31.4003 18.8243 31.2073 18.8233C31.0143 18.8223 30.8373 18.7423 30.6763 18.5833L26.2333 14.1418C25.7853 14.5378 25.2663 14.8308 24.6763 15.0208C24.0863 15.2108 23.4823 15.3058 22.8643 15.3058C21.2973 15.3058 19.9728 14.7653 18.8908 13.6843C17.8088 12.6033 17.2678 11.2788 17.2678 9.71076C17.2678 8.14276 17.8088 6.81826 18.8908 5.73726C19.9728 4.65626 21.2973 4.11526 22.8643 4.11426C24.4313 4.11326 25.7558 4.65426 26.8378 5.73726C27.9198 6.82026 28.4608 8.14476 28.4608 9.71076C28.4608 10.3858 28.3558 11.0043 28.1458 11.5663C27.9358 12.1273 27.6523 12.6308 27.2953 13.0798ZM22.8643 13.8058C24.0103 13.8058 24.9798 13.4098 25.7728 12.6178C26.5658 11.8258 26.9613 10.8568 26.9593 9.71076C26.9573 8.56476 26.5608 7.59526 25.7698 6.80226C24.9788 6.00926 24.0103 5.61376 22.8643 5.61576C21.7183 5.61776 20.7488 6.01426 19.9558 6.80526C19.1628 7.59626 18.7673 8.56476 18.7693 9.71076C18.7713 10.8568 19.1673 11.8263 19.9573 12.6193C20.7473 13.4123 21.7168 13.8083 22.8658 13.8073M5.61429 18.7393V29.9608V8.96076V18.3058V17.8858V18.7393Z" fill="#462078"/>
</svg>
