<svg width="36" height="36" viewBox="0 0 36 36" fill="none" xmlns="http://www.w3.org/2000/svg">
<path d="M5.655 30.231C5.214 30.231 4.844 30.081 4.545 29.781C4.246 29.481 4.096 29.112 4.095 28.674V6.28799C4.095 5.84799 4.245 5.47849 4.545 5.17949C4.844 4.87949 5.214 4.72949 5.655 4.72949H16.038C16.478 4.72949 16.848 4.87949 17.148 5.17949C17.447 5.47849 17.5965 5.84849 17.5965 6.28949V10.7295H30.3465C30.7865 10.7295 31.1565 10.8795 31.4565 11.1795C31.7545 11.4785 31.9035 11.8485 31.9035 12.2895V28.674C31.9035 29.114 31.754 29.4835 31.455 29.7825C31.156 30.0815 30.786 30.231 30.345 30.231H5.655ZM5.595 28.731H16.095V24.231H5.595V28.731ZM5.595 22.731H16.095V18.231H5.595V22.731ZM5.595 16.731H16.095V12.231H5.595V16.731ZM5.595 10.731H16.095V6.23099H5.595V10.731ZM17.595 28.731H30.405V12.231H17.595V28.731ZM21.924 18.231C21.711 18.231 21.5325 18.159 21.3885 18.015C21.2455 17.871 21.174 17.6925 21.174 17.4795C21.174 17.2665 21.2455 17.0885 21.3885 16.9455C21.5315 16.8025 21.71 16.731 21.924 16.731H25.5C25.713 16.731 25.891 16.803 26.034 16.947C26.177 17.091 26.249 17.2695 26.25 17.4825C26.251 17.6955 26.179 17.8735 26.034 18.0165C25.889 18.1595 25.711 18.231 25.5 18.231H21.924ZM21.924 24.231C21.711 24.231 21.5325 24.159 21.3885 24.015C21.2455 23.871 21.174 23.6925 21.174 23.4795C21.174 23.2665 21.2455 23.0885 21.3885 22.9455C21.5315 22.8025 21.71 22.731 21.924 22.731H25.5C25.713 22.731 25.891 22.803 26.034 22.947C26.177 23.091 26.249 23.2695 26.25 23.4825C26.251 23.6955 26.179 23.8735 26.034 24.0165C25.889 24.1595 25.711 24.231 25.5 24.231H21.924Z" fill="#462078"/>
</svg>
