<svg width="120" height="120" viewBox="0 0 120 120" fill="none" xmlns="http://www.w3.org/2000/svg">
<path d="M28.08 100C25.7767 100 23.855 99.23 22.315 97.69C20.775 96.15 20.0033 94.2267 20 91.92V28.08C20 25.7767 20.7717 23.855 22.315 22.315C23.8583 20.775 25.78 20.0033 28.08 20H91.925C94.225 20 96.1467 20.7717 97.69 22.315C99.2333 23.8583 100.003 25.78 100 28.08V91.925C100 94.225 99.23 96.1467 97.69 97.69C96.15 99.2333 94.2267 100.003 91.92 100H28.08ZM28.08 95H91.925C92.8217 95 93.5583 94.7117 94.135 94.135C94.7117 93.5583 95 92.8217 95 91.925V28.075C95 27.1783 94.7117 26.4417 94.135 25.865C93.5583 25.2883 92.8217 25 91.925 25H28.075C27.1783 25 26.4417 25.2883 25.865 25.865C25.2883 26.4417 25 27.18 25 28.08V91.925C25 92.8217 25.2883 93.5583 25.865 94.135C26.4417 94.7117 27.18 95 28.08 95ZM60 36.25C54.95 36.25 50.52 37.9933 46.71 41.48C42.9033 44.9667 41 49.7 41 55.68C41 60.5467 42.895 65.3133 46.685 69.98C50.475 74.6467 54.0133 78.4383 57.3 81.355C57.7333 81.7083 58.1783 81.9733 58.635 82.15C59.0917 82.3267 59.5467 82.415 60 82.415C60.4533 82.415 60.9083 82.3267 61.365 82.15C61.8217 81.9733 62.2683 81.7083 62.705 81.355C66.055 78.4383 69.6083 74.6467 73.365 69.98C77.1217 65.3133 79 60.5467 79 55.68C79 49.7 77.0967 44.9667 73.29 41.48C69.4833 37.9933 65.0533 36.25 60 36.25ZM60 61.06C58.5067 61.06 57.2517 60.5517 56.235 59.535C55.2183 58.5183 54.71 57.2633 54.71 55.77C54.71 54.2767 55.2183 53.0217 56.235 52.005C57.2517 50.9883 58.5067 50.48 60 50.48C61.4933 50.48 62.7483 50.9883 63.765 52.005C64.7817 53.0217 65.29 54.2767 65.29 55.77C65.29 57.2633 64.7817 58.5183 63.765 59.535C62.7483 60.5517 61.4933 61.06 60 61.06Z" fill="white"/>
</svg>
