<svg width="120" height="120" viewBox="0 0 120 120" fill="none" xmlns="http://www.w3.org/2000/svg">
<path d="M58.51 99.71C59.1633 99.71 59.8333 99.5634 60.52 99.27C61.2067 98.9767 61.7617 98.6184 62.185 98.195L101.165 59.21C102.422 57.9534 103.392 56.67 104.075 55.36C104.755 54.0434 105.095 52.6 105.095 51.03C105.095 49.44 104.755 47.8967 104.075 46.4C103.392 44.9 102.422 43.5334 101.165 42.3L82.415 23.55C81.1783 22.2934 79.9067 21.3717 78.6 20.785C77.2967 20.1984 75.85 19.905 74.26 19.905C72.69 19.905 71.2317 20.1984 69.885 20.785C68.5383 21.3717 67.27 22.2917 66.08 23.545L61.72 27.905L70.97 37.18C71.9633 38.1567 72.705 39.2667 73.195 40.51C73.6817 41.7534 73.925 43.015 73.925 44.295C73.925 46.8984 73.0733 49.0517 71.37 50.755C69.6667 52.4584 67.515 53.3084 64.915 53.305C63.6317 53.305 62.38 53.11 61.16 52.72C59.94 52.33 58.8417 51.6467 57.865 50.67L50.51 43.35C49.9333 42.7734 49.1967 42.485 48.3 42.485C47.4 42.485 46.6617 42.7734 46.085 43.35L26.71 62.725C26.2067 63.2317 25.8283 63.8067 25.575 64.45C25.3217 65.0934 25.195 65.7434 25.195 66.4C25.195 67.58 25.5733 68.5517 26.33 69.315C27.0833 70.0817 28.05 70.465 29.23 70.465C29.8833 70.465 30.5533 70.3184 31.24 70.025C31.9267 69.7284 32.4817 69.3684 32.905 68.945L46.98 54.87C47.4467 54.4034 48.0167 54.1484 48.69 54.105C49.3633 54.0617 49.9733 54.3167 50.52 54.87C51.0533 55.4034 51.32 55.9934 51.32 56.64C51.32 57.2867 51.0533 57.8767 50.52 58.41L36.47 72.485C35.9633 72.9917 35.5833 73.5667 35.33 74.21C35.08 74.8567 34.955 75.5067 34.955 76.16C34.955 77.2767 35.3483 78.2284 36.135 79.015C36.9217 79.8017 37.8733 80.1967 38.99 80.2C39.6433 80.2 40.3133 80.0517 41 79.755C41.6867 79.4584 42.2417 79.1 42.665 78.68L57.895 63.48C58.3617 63.01 58.93 62.7534 59.6 62.71C60.27 62.6667 60.88 62.9217 61.43 63.475C61.9633 64.0084 62.23 64.5984 62.23 65.245C62.23 65.8917 61.9633 66.4817 61.43 67.015L46.23 82.245C45.79 82.6684 45.4267 83.2234 45.14 83.91C44.8533 84.5967 44.71 85.2667 44.71 85.92C44.71 87.0334 45.105 87.9834 45.895 88.77C46.685 89.5634 47.6367 89.96 48.75 89.96C49.4033 89.96 50.0533 89.8334 50.7 89.58C51.3467 89.3267 51.92 88.9467 52.42 88.44L67.655 73.24C68.1217 72.77 68.69 72.5134 69.36 72.47C70.03 72.43 70.6417 72.685 71.195 73.235C71.725 73.7684 71.99 74.3584 71.99 75.005C71.99 75.6517 71.7233 76.2417 71.19 76.775L55.965 92C55.4617 92.5067 55.0833 93.115 54.83 93.825C54.5767 94.535 54.45 95.1834 54.45 95.77C54.45 96.95 54.865 97.9017 55.695 98.625C56.525 99.3484 57.465 99.71 58.515 99.71M58.485 104.71C55.915 104.71 53.715 103.77 51.885 101.89C50.055 100.01 49.2517 97.6867 49.475 94.92C46.6417 94.9534 44.2833 94.1084 42.4 92.385C40.5167 90.6617 39.6217 88.255 39.715 85.165C36.6283 85.1984 34.195 84.315 32.415 82.515C30.635 80.715 29.825 78.345 29.985 75.405C27.205 75.4384 24.8783 74.655 23.005 73.055C21.135 71.4617 20.2 69.2417 20.2 66.395C20.2 65.1117 20.4483 63.8284 20.945 62.545C21.4417 61.2584 22.175 60.1284 23.145 59.155L42.62 39.68C44.1533 38.15 46.0433 37.385 48.29 37.385C50.5367 37.385 52.4267 38.1517 53.96 39.685L61.215 46.94C61.6383 47.3834 62.1617 47.7484 62.785 48.035C63.4083 48.3217 64.11 48.4634 64.89 48.46C65.96 48.46 66.905 48.0867 67.725 47.34C68.545 46.5934 68.9567 45.62 68.96 44.42C68.96 43.64 68.8167 42.94 68.53 42.32C68.2433 41.6967 67.88 41.1734 67.44 40.75L50.24 23.55C49 22.2934 47.7117 21.3717 46.375 20.785C45.0383 20.1984 43.575 19.905 41.985 19.905C40.415 19.905 38.9883 20.1984 37.705 20.785C36.425 21.3717 35.1567 22.2934 33.9 23.55L18.675 38.8C16.9283 40.5434 15.805 42.6717 15.305 45.185C14.805 47.6984 15.0333 50.0984 15.99 52.385C16.1767 53.0317 16.0933 53.6567 15.74 54.26C15.3867 54.8634 14.8867 55.2467 14.24 55.41C13.5933 55.5734 12.9517 55.4867 12.315 55.15C11.6783 54.8134 11.2783 54.3184 11.115 53.665C10.0383 50.4317 9.80332 47.1667 10.41 43.87C11.0167 40.5734 12.5833 37.6617 15.11 35.135L30.23 20.01C31.9733 18.2834 33.8183 17 35.765 16.16C37.7117 15.3234 39.8167 14.905 42.08 14.905C44.3433 14.905 46.43 15.325 48.34 16.165C50.2533 17.0017 52.0733 18.2834 53.8 20.01L58.15 24.365L62.51 20.01C64.2533 18.2834 66.0817 17 67.995 16.16C69.9083 15.3234 71.9967 14.905 74.26 14.905C76.5233 14.905 78.6283 15.325 80.575 16.165C82.5183 17.0017 84.3517 18.2834 86.075 20.01L104.705 38.635C106.428 40.3584 107.758 42.2934 108.695 44.44C109.632 46.5867 110.098 48.7917 110.095 51.055C110.095 53.3217 109.628 55.41 108.695 57.32C107.762 59.23 106.432 61.05 104.705 62.78L65.72 101.73C64.6833 102.77 63.5533 103.527 62.33 104C61.11 104.473 59.8317 104.71 58.485 104.71Z" fill="white"/>
</svg>
