<svg width="120" height="120" viewBox="0 0 120 120" fill="none" xmlns="http://www.w3.org/2000/svg">
<path d="M56.9831 65.7531C58.7449 65.7531 60.2718 65.5215 61.5638 65.0584C62.8592 64.5987 64.2619 63.9074 65.772 62.9846L76.4485 73.7215C76.8613 74.151 77.3663 74.3775 77.9637 74.401C78.561 74.4245 79.108 74.198 79.6047 73.7215C80.1013 73.2215 80.3547 72.6896 80.3648 72.1258C80.3748 71.562 80.1315 71.0318 79.6349 70.5351L68.9282 59.8284C69.851 58.4022 70.5104 57.0532 70.9064 55.7813C71.3057 54.5094 71.5054 52.9926 71.5054 51.2308C71.5054 47.1837 70.0859 43.7524 67.2469 40.9369C64.4112 38.118 60.99 36.7085 56.9831 36.7085C52.9763 36.7085 49.5534 38.118 46.7143 40.9369C43.8787 43.7557 42.4608 47.1871 42.4608 51.2308C42.4608 55.2779 43.8804 58.7093 46.7194 61.5248C49.555 64.3437 52.9763 65.7531 56.9831 65.7531ZM56.9831 61.2983C54.2146 61.2983 51.8454 60.3133 49.8755 58.3435C47.9057 56.3736 46.919 54.0027 46.9157 51.2308C46.9157 48.4623 47.9023 46.0931 49.8755 44.1232C51.8487 42.1533 54.2179 41.1667 56.9831 41.1634C59.7349 41.1634 62.1007 42.15 64.0807 44.1232C66.0606 46.0931 67.0506 48.4623 67.0506 51.2308C67.0506 53.9994 66.0656 56.3702 64.0958 58.3435C62.1226 60.3133 59.7517 61.2983 56.9831 61.2983ZM10.5219 97.5058C9.80375 97.5058 9.20306 97.2642 8.71982 96.781C8.23994 96.3011 8 95.7037 8 94.989C8 94.2708 8.23994 93.6718 8.71982 93.1919C9.20306 92.712 9.80207 92.4721 10.5169 92.4721H108.483C109.198 92.4721 109.795 92.712 110.275 93.1919C110.758 93.6718 111 94.2708 111 94.989C111 95.7037 110.758 96.3011 110.275 96.781C109.792 97.2608 109.195 97.5025 108.483 97.5058H10.5219ZM22.326 87.4384C20.0105 87.4384 18.0775 86.6615 16.5271 85.1078C14.9734 83.5574 14.1965 81.6227 14.1965 79.3039V30.1244C14.1965 27.8089 14.9734 25.876 16.5271 24.3256C18.0809 22.7752 20.0138 22 22.326 22H96.674C98.9895 22 100.922 22.7752 102.473 24.3256C104.027 25.8793 104.803 27.8139 104.803 30.1295V79.3089C104.803 81.6244 104.028 83.5574 102.478 85.1078C100.928 86.6581 98.9929 87.435 96.674 87.4384H22.326ZM22.326 82.4047H96.674C97.4459 82.4047 98.1556 82.0808 98.8033 81.4331C99.4476 80.7888 99.7698 80.0791 99.7698 79.3039V30.1244C99.7698 29.3526 99.4476 28.6445 98.8033 28.0002C98.1556 27.3559 97.4459 27.0337 96.674 27.0337H22.326C21.5541 27.0337 20.8444 27.3559 20.1967 28.0002C19.5524 28.6445 19.2302 29.3543 19.2302 30.1295V79.3089C19.2302 80.0808 19.5524 80.7888 20.1967 81.4331C20.8444 82.0808 21.5541 82.4047 22.326 82.4047Z" fill="white"/>
</svg>
