<svg width="120" height="120" viewBox="0 0 120 120" fill="none" xmlns="http://www.w3.org/2000/svg">
<path d="M72.4087 95.9394L46.0385 87.0977L27.2788 94.0685C26.6058 94.3272 25.9631 94.4088 25.351 94.3133C24.7356 94.2209 24.1683 94.0177 23.649 93.7035C23.1298 93.3894 22.726 92.9675 22.4375 92.4378C22.149 91.9081 22.0032 91.2983 22 90.6085V34.3754C22 33.5069 22.2083 32.7385 22.625 32.0703C23.0417 31.402 23.6474 30.9354 24.4423 30.6705L43.4663 24.4619C43.8638 24.308 44.2756 24.1925 44.7019 24.1155C45.1314 24.0385 45.5769 24 46.0385 24C46.5 24 46.9439 24.0385 47.3702 24.1155C47.7965 24.1925 48.2083 24.308 48.6058 24.4619L74.8846 33.299L93.6442 26.3328C94.3173 26.0742 94.9599 25.991 95.5721 26.0834C96.1843 26.1758 96.7516 26.379 97.274 26.6932C97.7901 27.0073 98.1939 27.4292 98.4856 27.9589C98.7772 28.4886 98.9231 29.0984 98.9231 29.7882V86.4186C98.9231 87.2932 98.6683 88.0554 98.1587 88.7052C97.6522 89.3581 96.9696 89.817 96.1106 90.0818L77.3606 96.0271C76.9439 96.1811 76.5337 96.2812 76.1298 96.3274C75.7292 96.3736 75.3125 96.3967 74.8798 96.3967C74.4439 96.3967 74.0272 96.3597 73.6298 96.2858C73.2324 96.2119 72.8285 96.0964 72.4087 95.9394ZM72.4808 91.1674V37.1194L48.4423 29.0537V83.1018L72.4808 91.1674ZM77.2885 91.1674L94.1154 85.8365V31.0955L77.2885 37.1194V91.1674ZM26.8077 89.3012L43.6346 83.1018V29.0537L26.8077 34.5602V89.3012Z" fill="white"/>
</svg>
