<svg width="120" height="120" viewBox="0 0 120 120" fill="none" xmlns="http://www.w3.org/2000/svg">
<path d="M28.08 100C25.8567 100 23.955 99.2083 22.375 97.625C20.795 96.0417 20.0033 94.1433 20 91.93V28.075C20 25.855 20.7917 23.955 22.375 22.375C23.9583 20.795 25.8583 20.0033 28.075 20H91.925C94.145 20 96.045 20.7917 97.625 22.375C99.205 23.9583 99.9967 25.8583 100 28.075V64.96C100 65.68 99.76 66.2717 99.28 66.735C98.8 67.2017 98.205 67.435 97.495 67.435C96.785 67.435 96.1917 67.195 95.715 66.715C95.2383 66.235 95 65.6417 95 64.935V50.77H75.01V64.96C75.01 65.68 74.77 66.2717 74.29 66.735C73.81 67.2017 73.215 67.435 72.505 67.435C71.795 67.435 71.2017 67.195 70.725 66.715C70.2483 66.235 70.01 65.6417 70.01 64.935V50.77H49.99V70.195C49.99 71.6617 49.4917 72.8933 48.495 73.89C47.4983 74.8867 46.265 75.385 44.795 75.385H25V91.925C25 92.8217 25.2883 93.5583 25.865 94.135C26.4417 94.7117 27.18 95 28.08 95H39.135C39.845 95 40.4383 95.24 40.915 95.72C41.3917 96.2 41.6317 96.795 41.635 97.505C41.6383 98.215 41.3983 98.8083 40.915 99.285C40.4317 99.7617 39.8383 100 39.135 100H28.08ZM25 70.385H44.99V50.77H25V70.385ZM25 45.77H95V28.08C95 27.18 94.7117 26.4417 94.135 25.865C93.5583 25.2883 92.8217 25 91.925 25H28.075C27.1783 25 26.4417 25.2883 25.865 25.865C25.2883 26.4417 25 27.18 25 28.08V45.77ZM80.685 110C75.4417 110 70.5417 108.853 65.985 106.56C61.4317 104.263 57.5317 101.07 54.285 96.98C53.785 96.3567 53.4267 95.695 53.21 94.995C52.9933 94.295 52.885 93.575 52.885 92.835C52.885 92.1017 52.9933 91.3383 53.21 90.545C53.43 89.7583 53.79 89.045 54.29 88.405C57.5333 84.315 61.4283 81.1217 65.975 78.825C70.5217 76.5283 75.4183 75.3817 80.665 75.385C85.9117 75.3883 90.81 76.535 95.36 78.825C99.91 81.115 103.81 84.3083 107.06 88.405C107.56 89.045 107.918 89.7383 108.135 90.485C108.352 91.2317 108.46 91.9667 108.46 92.69C108.46 93.4133 108.352 94.15 108.135 94.9C107.918 95.65 107.56 96.3433 107.06 96.98C103.817 101.07 99.92 104.262 95.37 106.555C90.82 108.848 85.925 109.997 80.685 110ZM80.67 101.54C83.1467 101.54 85.2417 100.685 86.955 98.975C88.6683 97.265 89.5233 95.1717 89.52 92.695C89.5167 90.2183 88.6617 88.125 86.955 86.415C85.2483 84.705 83.155 83.8483 80.675 83.845C78.195 83.8417 76.1017 84.6967 74.395 86.41C72.6883 88.1233 71.8333 90.2167 71.83 92.69C71.8267 95.1633 72.68 97.2567 74.39 98.97C76.1 100.683 78.1933 101.54 80.67 101.54ZM80.685 97.69C79.2983 97.69 78.1167 97.2067 77.14 96.24C76.1633 95.2667 75.675 94.0883 75.675 92.705C75.675 91.3217 76.1583 90.1383 77.125 89.155C78.0983 88.1817 79.2767 87.695 80.66 87.695C82.0467 87.695 83.23 88.1783 84.21 89.145C85.19 90.1117 85.6783 91.29 85.675 92.68C85.6717 94.07 85.1867 95.2533 84.22 96.23C83.2533 97.2067 82.075 97.69 80.685 97.69Z" fill="white"/>
</svg>
