<svg width="60" height="60" viewBox="0 0 60 60" fill="none" xmlns="http://www.w3.org/2000/svg">
<path d="M25.2067 38.3067L16.8833 29.9867C16.5722 29.6756 16.19 29.5089 15.7367 29.4867C15.2833 29.4644 14.88 29.6311 14.5267 29.9867C14.1711 30.3422 13.9933 30.7356 13.9933 31.1667C13.9933 31.5978 14.1711 31.9911 14.5267 32.3467L23.32 41.14C23.8578 41.68 24.4867 41.95 25.2067 41.95C25.9244 41.95 26.5522 41.68 27.09 41.14L45.3467 22.8833C45.6578 22.5722 45.8244 22.19 45.8467 21.7367C45.8689 21.2833 45.7022 20.88 45.3467 20.5267C44.9911 20.1711 44.5978 19.9933 44.1667 19.9933C43.7356 19.9933 43.3422 20.1711 42.9867 20.5267L25.2067 38.3067ZM30.01 60C25.8633 60 21.9633 59.2133 18.31 57.64C14.6589 56.0644 11.4822 53.9267 8.78 51.2267C6.07778 48.5289 3.93889 45.3556 2.36333 41.7067C0.787778 38.0578 0 34.1589 0 30.01C0 25.8633 0.786666 21.9633 2.36 18.31C3.93556 14.6589 6.07333 11.4822 8.77333 8.78C11.4711 6.07778 14.6444 3.93889 18.2933 2.36333C21.9422 0.787778 25.8411 0 29.99 0C34.1367 0 38.0367 0.786666 41.69 2.36C45.3411 3.93556 48.5178 6.07333 51.22 8.77333C53.9222 11.4711 56.0611 14.6444 57.6367 18.2933C59.2122 21.9422 60 25.8411 60 29.99C60 34.1367 59.2133 38.0367 57.64 41.69C56.0644 45.3411 53.9267 48.5178 51.2267 51.22C48.5289 53.9222 45.3556 56.0611 41.7067 57.6367C38.0578 59.2122 34.1589 60 30.01 60ZM30 56.6667C37.4444 56.6667 43.75 54.0833 48.9167 48.9167C54.0833 43.75 56.6667 37.4444 56.6667 30C56.6667 22.5556 54.0833 16.25 48.9167 11.0833C43.75 5.91667 37.4444 3.33333 30 3.33333C22.5556 3.33333 16.25 5.91667 11.0833 11.0833C5.91667 16.25 3.33333 22.5556 3.33333 30C3.33333 37.4444 5.91667 43.75 11.0833 48.9167C16.25 54.0833 22.5556 56.6667 30 56.6667Z" fill="url(#paint0_linear_2130_461)"/>
<defs>
<linearGradient id="paint0_linear_2130_461" x1="14.2308" y1="-110" x2="63.8014" y2="-107.295" gradientUnits="userSpaceOnUse">
<stop stop-color="#25BDB3"/>
<stop offset="0.735" stop-color="#9747FF"/>
<stop offset="1" stop-color="#462078"/>
</linearGradient>
</defs>
</svg>
