<svg width="130" height="200" viewBox="0 0 130 200" fill="none" xmlns="http://www.w3.org/2000/svg">
<path d="M65.1766 66.1765C56.6639 66.1765 48.2345 67.9072 40.3698 71.2698C32.505 74.6325 25.359 79.5612 19.3396 85.7745C13.3202 91.9878 8.5453 99.3641 5.28763 107.482C2.02995 115.6 0.353241 124.301 0.353241 133.088C0.353241 141.875 2.02995 150.576 5.28763 158.694C8.54531 166.812 13.3202 174.189 19.3396 180.402C25.359 186.615 32.5051 191.544 40.3698 194.907C48.2345 198.269 56.6639 200 65.1766 200L65.1766 133.088L65.1766 66.1765Z" fill="url(#paint0_linear_1_161)"/>
<path d="M64.8234 -3.05176e-05C73.3361 -3.05176e-05 81.7655 1.73069 89.6302 5.09332C97.495 8.45595 104.641 13.3846 110.66 19.598C116.68 25.8113 121.455 33.1876 124.712 41.3057C127.97 49.4238 129.647 58.1248 129.647 66.9117C129.647 75.6987 127.97 84.3996 124.712 92.5178C121.455 100.636 116.68 108.012 110.66 114.225C104.641 120.439 97.4949 125.368 89.6302 128.73C81.7655 132.093 73.3361 133.823 64.8234 133.823L64.8234 66.9117L64.8234 -3.05176e-05Z" fill="url(#paint1_linear_1_161)"/>
<defs>
<linearGradient id="paint0_linear_1_161" x1="-237.333" y1="168.26" x2="-231.107" y2="57.7192" gradientUnits="userSpaceOnUse">
<stop stop-color="#25BDB3"/>
<stop offset="0.735" stop-color="#9747FF"/>
<stop offset="1" stop-color="#462078"/>
</linearGradient>
<linearGradient id="paint1_linear_1_161" x1="367.333" y1="102.083" x2="361.107" y2="-8.45727" gradientUnits="userSpaceOnUse">
<stop stop-color="#25BDB3"/>
<stop offset="0.735" stop-color="#9747FF"/>
<stop offset="1" stop-color="#462078"/>
</linearGradient>
</defs>
</svg>
